<svg id="expandedicons" xmlns="http://www.w3.org/2000/svg" viewBox="0 0 64 64" fill="#f4ebeb">
  <path d="M45.6777,63H8.7686a1,1,0,0,1-1-1V17.86a.9986.9986,0,0,1,.1386-.5078l5.1934-8.8086a.9986.9986,0,0,1,.8613-.4922H50.5137a1.0006,1.0006,0,0,1,.8769,1.4814l-4.7129,8.5835V62A1,1,0,0,1,45.6777,63ZM9.7686,61H44.6777V17.86a.9985.9985,0,0,1,.1231-.4815l4.0234-7.3271H14.5332L9.7686,18.1328Z"/>
  <path d="M45.6768,63a1,1,0,0,1-.167-1.9858l8.834-1.5079v-41.46L49.6387,9.5352a1,1,0,0,1,1.75-.9678l4.8349,8.7461a.9989.9989,0,0,1,.12.5825V60.35a1,1,0,0,1-.8321.9858l-9.666,1.65A.9909.9909,0,0,1,45.6768,63Z"/>
  <path d="M50.5137,10.0513a1,1,0,0,1-1-1V2.9932H14.9619V9.0513a1,1,0,0,1-2,0V1.9932a1,1,0,0,1,1-1H50.5137a1,1,0,0,1,1,1V9.0513A1,1,0,0,1,50.5137,10.0513Z"/>
  <path d="M23.42,47.1929A5.8194,5.8194,0,0,1,19.7,45.95c-1.64-1.3193-2.3926-3.49-2.12-6.1113a14.3889,14.3889,0,0,1,3.2207-7.3272c3.9238-4.8764,9.5859-6.6142,12.8906-3.9555s2.8213,8.5615-1.1006,13.4384h0C29.91,45.3262,26.418,47.1929,23.42,47.1929ZM30.0088,29.334c-2.3916,0-5.41,1.6465-7.6494,4.4311a12.3685,12.3685,0,0,0-2.79,6.28,4.7282,4.7282,0,0,0,1.3848,4.3457c2.35,1.8892,6.9648.2188,10.0781-3.65h0c3.1123-3.87,3.7559-8.7363,1.4053-10.6264A3.7933,3.7933,0,0,0,30.0088,29.334Zm1.8027,12.0332h0Z"/>
  <path d="M20.3262,46.17a1,1,0,0,1-.1924-1.9809h0a7.2871,7.2871,0,0,0,5.5635-6.9986A9.3913,9.3913,0,0,1,32.876,28.353a1,1,0,1,1,.3769,1.9639,7.2867,7.2867,0,0,0-5.5595,6.9971,9.39,9.39,0,0,1-7.1778,8.8383A.9954.9954,0,0,1,20.3262,46.17Z"/>
</svg>